<svg width="24" height="24" viewBox="0 0 24 24" fill="none" xmlns="http://www.w3.org/2000/svg">
<rect x="0.5" y="0.5" width="23" height="23" rx="11.5" fill="url(#paint0_radial_79_1512)"/>
<rect x="0.5" y="0.5" width="23" height="23" rx="11.5" stroke="url(#paint1_radial_79_1512)"/>
<path fill-rule="evenodd" clip-rule="evenodd" d="M11.7285 5.62866C11.8853 5.49845 12.1139 5.49846 12.2707 5.62866C13.8218 6.91654 15.7848 7.72538 17.9329 7.82821C18.126 7.83745 18.2909 7.97691 18.3162 8.16855C18.3712 8.58443 18.3996 9.00872 18.3996 9.43963C18.3996 13.5696 15.7917 17.0904 12.1328 18.4452C12.0471 18.4769 11.9524 18.4769 11.8666 18.4452C8.20764 17.0905 5.59961 13.5696 5.59961 9.43953C5.59961 9.00866 5.628 8.58441 5.683 8.16855C5.70835 7.97692 5.87322 7.83745 6.06631 7.82821C8.21441 7.72539 10.1775 6.91655 11.7285 5.62866ZM15.0849 10.3923C15.2798 10.1243 15.2205 9.74906 14.9525 9.55416C14.6845 9.35926 14.3093 9.41851 14.1144 9.6865L11.3274 13.5186L9.82387 12.0151C9.58956 11.7808 9.20966 11.7808 8.97535 12.0151C8.74103 12.2495 8.74103 12.6294 8.97535 12.8637L10.9753 14.8637C11.0994 14.9877 11.2716 15.0513 11.4465 15.0376C11.6215 15.0238 11.7816 14.9342 11.8849 14.7923L15.0849 10.3923Z" fill="url(#paint2_linear_79_1512)"/>
<defs>
<radialGradient id="paint0_radial_79_1512" cx="0" cy="0" r="1" gradientUnits="userSpaceOnUse" gradientTransform="translate(12 -4.33333) rotate(90) scale(28.3333)">
<stop stop-color="#07BA5B"/>
<stop offset="1" stop-color="#035429"/>
</radialGradient>
<radialGradient id="paint1_radial_79_1512" cx="0" cy="0" r="1" gradientUnits="userSpaceOnUse" gradientTransform="translate(12) rotate(90) scale(24)">
<stop stop-color="#35FF85"/>
<stop offset="1" stop-color="#005E25"/>
</radialGradient>
<linearGradient id="paint2_linear_79_1512" x1="11.9996" y1="5.53101" x2="11.9996" y2="18.469" gradientUnits="userSpaceOnUse">
<stop stop-color="#88FFB7"/>
<stop offset="1" stop-color="#00C84F"/>
</linearGradient>
</defs>
</svg>
