<svg width="63" height="22" viewBox="0 0 63 22" fill="none" xmlns="http://www.w3.org/2000/svg">
<rect x="0.5" y="0.5" width="62" height="21" rx="10.5" fill="#00EC97" fill-opacity="0.08"/>
<rect x="0.5" y="0.5" width="62" height="21" rx="10.5" stroke="url(#paint0_linear_79_1792)"/>
<g clip-path="url(#clip0_79_1792)">
<path d="M15.1668 6.97626C14.8688 6.97626 14.592 7.13079 14.4359 7.38482L12.7537 9.8823C12.6989 9.96461 12.7212 10.0756 12.8035 10.1304C12.8702 10.1749 12.9585 10.1694 13.0192 10.1171L14.675 8.68091C14.7025 8.65615 14.745 8.65867 14.7697 8.68618C14.781 8.69879 14.7869 8.71507 14.7869 8.73181V13.2283C14.7869 13.2655 14.7569 13.2953 14.7197 13.2953C14.6998 13.2953 14.681 13.2866 14.6684 13.2712L9.6631 7.27982C9.50009 7.08746 9.26073 6.97649 9.00875 6.97626H8.83382C8.36037 6.97626 7.97656 7.36006 7.97656 7.83351V14.1665C7.97656 14.64 8.36037 15.0238 8.83382 15.0238C9.13187 15.0238 9.40861 14.8692 9.56474 14.6152L11.2469 12.1177C11.3017 12.0354 11.2795 11.9244 11.1972 11.8696C11.1305 11.8252 11.0422 11.8307 10.9814 11.8829L9.32561 13.3191C9.2981 13.3439 9.25568 13.3414 9.23092 13.3138C9.21969 13.3012 9.21372 13.285 9.21395 13.2682V8.77055C9.21395 8.73341 9.24399 8.70361 9.28113 8.70361C9.30085 8.70361 9.31988 8.71232 9.33249 8.72768L14.3371 14.7202C14.5001 14.9126 14.7395 15.0235 14.9914 15.0238H15.1664C15.6398 15.024 16.0238 14.6404 16.0243 14.167V7.83351C16.0243 7.36006 15.6405 6.97626 15.167 6.97626H15.1668Z" fill="#00EC97"/>
</g>
<path d="M21.4347 7.72727L23.4588 13.6506H23.5405L25.5646 7.72727H26.7507L24.1335 15H22.8658L20.2486 7.72727H21.4347ZM29.1197 15.1101C28.5823 15.1101 28.1195 14.9953 27.7312 14.7656C27.3453 14.5336 27.047 14.2081 26.8363 13.7891C26.628 13.3677 26.5238 12.8741 26.5238 12.3082C26.5238 11.7495 26.628 11.2571 26.8363 10.831C27.047 10.4048 27.3406 10.0722 27.717 9.8331C28.0958 9.59399 28.5385 9.47443 29.0451 9.47443C29.3529 9.47443 29.6512 9.52533 29.94 9.62713C30.2288 9.72893 30.4881 9.88873 30.7177 10.1065C30.9474 10.3243 31.1285 10.6072 31.261 10.9553C31.3936 11.3009 31.4599 11.7211 31.4599 12.2159V12.5923H27.124V11.7969H30.4194C30.4194 11.5175 30.3626 11.2701 30.249 11.0547C30.1353 10.8369 29.9755 10.6652 29.7696 10.5398C29.566 10.4143 29.3269 10.3516 29.0522 10.3516C28.7539 10.3516 28.4935 10.425 28.271 10.5717C28.0508 10.7161 27.8804 10.9055 27.7596 11.1399C27.6413 11.3719 27.5821 11.6241 27.5821 11.8963V12.5178C27.5821 12.8823 27.646 13.1925 27.7738 13.4482C27.904 13.7038 28.0851 13.8991 28.3172 14.0341C28.5492 14.1667 28.8202 14.233 29.1304 14.233C29.3316 14.233 29.5151 14.2045 29.6808 14.1477C29.8465 14.0885 29.9897 14.0009 30.1105 13.8849C30.2312 13.7689 30.3235 13.6257 30.3875 13.4553L31.3924 13.6364C31.3119 13.9323 31.1675 14.1915 30.9592 14.4141C30.7532 14.6342 30.494 14.8059 30.1815 14.929C29.8714 15.0497 29.5174 15.1101 29.1197 15.1101ZM32.238 15V9.54545H33.2643V10.4119H33.3211C33.4205 10.1184 33.5957 9.88755 33.8467 9.71946C34.1 9.54901 34.3864 9.46378 34.706 9.46378C34.7723 9.46378 34.8504 9.46615 34.9404 9.47088C35.0327 9.47562 35.1049 9.48153 35.157 9.48864V10.5043C35.1144 10.4924 35.0387 10.4794 34.9298 10.4652C34.8209 10.4486 34.712 10.4403 34.6031 10.4403C34.3521 10.4403 34.1284 10.4936 33.9319 10.6001C33.7378 10.7043 33.5839 10.8499 33.4702 11.0369C33.3566 11.2216 33.2998 11.4323 33.2998 11.669V15H32.238ZM35.6759 15V9.54545H36.7377V15H35.6759ZM36.2121 8.70384C36.0275 8.70384 35.8688 8.64228 35.7363 8.51918C35.606 8.3937 35.5409 8.24455 35.5409 8.07173C35.5409 7.89654 35.606 7.7474 35.7363 7.62429C35.8688 7.49882 36.0275 7.43608 36.2121 7.43608C36.3968 7.43608 36.5542 7.49882 36.6844 7.62429C36.817 7.7474 36.8833 7.89654 36.8833 8.07173C36.8833 8.24455 36.817 8.3937 36.6844 8.51918C36.5542 8.64228 36.3968 8.70384 36.2121 8.70384ZM40.362 9.54545V10.3977H37.2796V9.54545H40.362ZM38.1248 15V8.91335C38.1248 8.57244 38.1994 8.28954 38.3485 8.06463C38.4977 7.83736 38.6953 7.66809 38.9415 7.55682C39.1878 7.44318 39.4553 7.38636 39.7441 7.38636C39.9572 7.38636 40.1395 7.40412 40.291 7.43963C40.4425 7.47277 40.5549 7.50355 40.6283 7.53196L40.3798 8.39134C40.33 8.37713 40.2661 8.36056 40.188 8.34162C40.1099 8.32031 40.0152 8.30966 39.9039 8.30966C39.6459 8.30966 39.4612 8.37358 39.3499 8.50142C39.241 8.62926 39.1866 8.81392 39.1866 9.0554V15H38.1248ZM41.0575 15V9.54545H42.1193V15H41.0575ZM41.5938 8.70384C41.4091 8.70384 41.2505 8.64228 41.1179 8.51918C40.9877 8.3937 40.9226 8.24455 40.9226 8.07173C40.9226 7.89654 40.9877 7.7474 41.1179 7.62429C41.2505 7.49882 41.4091 7.43608 41.5938 7.43608C41.7784 7.43608 41.9358 7.49882 42.0661 7.62429C42.1986 7.7474 42.2649 7.89654 42.2649 8.07173C42.2649 8.24455 42.1986 8.3937 42.0661 8.51918C41.9358 8.64228 41.7784 8.70384 41.5938 8.70384ZM45.4986 15.1101C44.9612 15.1101 44.4984 14.9953 44.1101 14.7656C43.7242 14.5336 43.4259 14.2081 43.2152 13.7891C43.0069 13.3677 42.9027 12.8741 42.9027 12.3082C42.9027 11.7495 43.0069 11.2571 43.2152 10.831C43.4259 10.4048 43.7195 10.0722 44.0959 9.8331C44.4747 9.59399 44.9174 9.47443 45.424 9.47443C45.7318 9.47443 46.0301 9.52533 46.3189 9.62713C46.6078 9.72893 46.867 9.88873 47.0966 10.1065C47.3263 10.3243 47.5074 10.6072 47.64 10.9553C47.7725 11.3009 47.8388 11.7211 47.8388 12.2159V12.5923H43.5029V11.7969H46.7983C46.7983 11.5175 46.7415 11.2701 46.6279 11.0547C46.5142 10.8369 46.3544 10.6652 46.1485 10.5398C45.9449 10.4143 45.7058 10.3516 45.4311 10.3516C45.1328 10.3516 44.8724 10.425 44.6499 10.5717C44.4297 10.7161 44.2593 10.9055 44.1385 11.1399C44.0202 11.3719 43.961 11.6241 43.961 11.8963V12.5178C43.961 12.8823 44.0249 13.1925 44.1527 13.4482C44.2829 13.7038 44.4641 13.8991 44.6961 14.0341C44.9281 14.1667 45.1991 14.233 45.5093 14.233C45.7105 14.233 45.894 14.2045 46.0597 14.1477C46.2254 14.0885 46.3686 14.0009 46.4894 13.8849C46.6101 13.7689 46.7025 13.6257 46.7664 13.4553L47.7713 13.6364C47.6909 13.9323 47.5464 14.1915 47.3381 14.4141C47.1321 14.6342 46.8729 14.8059 46.5604 14.929C46.2503 15.0497 45.8963 15.1101 45.4986 15.1101ZM50.6588 15.1065C50.2185 15.1065 49.8255 14.9941 49.4798 14.7692C49.1366 14.5419 48.8667 14.2187 48.6702 13.7997C48.476 13.3783 48.379 12.8729 48.379 12.2834C48.379 11.6939 48.4772 11.1896 48.6737 10.7706C48.8726 10.3516 49.1448 10.0308 49.4905 9.80824C49.8361 9.5857 50.2279 9.47443 50.6659 9.47443C51.0045 9.47443 51.2767 9.53125 51.4827 9.64489C51.691 9.75616 51.852 9.88636 51.9656 10.0355C52.0816 10.1847 52.1716 10.3161 52.2355 10.4297H52.2994V7.72727H53.3612V15H52.3243V14.1513H52.2355C52.1716 14.2673 52.0793 14.3999 51.9585 14.549C51.8402 14.6982 51.6768 14.8284 51.4685 14.9396C51.2601 15.0509 50.9902 15.1065 50.6588 15.1065ZM50.8932 14.201C51.1986 14.201 51.4566 14.1205 51.6673 13.9595C51.8804 13.7962 52.0414 13.5701 52.1503 13.2812C52.2616 12.9924 52.3172 12.6562 52.3172 12.2727C52.3172 11.8939 52.2627 11.5625 52.1538 11.2784C52.0449 10.9943 51.8851 10.773 51.6744 10.6143C51.4637 10.4557 51.2033 10.3764 50.8932 10.3764C50.5736 10.3764 50.3072 10.4593 50.0942 10.625C49.8811 10.7907 49.7201 11.0168 49.6112 11.3033C49.5047 11.5897 49.4514 11.9129 49.4514 12.2727C49.4514 12.6373 49.5059 12.9652 49.6148 13.2564C49.7237 13.5476 49.8847 13.7784 50.0977 13.9489C50.3132 14.117 50.5783 14.201 50.8932 14.201Z" fill="#00EC97"/>
<defs>
<linearGradient id="paint0_linear_79_1792" x1="0" y1="11" x2="63" y2="11" gradientUnits="userSpaceOnUse">
<stop stop-color="#00EC97"/>
<stop offset="0.298077" stop-color="#00A6BF"/>
<stop offset="0.677885" stop-color="#003E9C"/>
<stop offset="1" stop-color="#570086"/>
</linearGradient>
<clipPath id="clip0_79_1792">
<rect width="8" height="8" fill="white" transform="translate(8 7)"/>
</clipPath>
</defs>
</svg>
