<svg width="20" height="20" viewBox="0 0 20 20" fill="none" xmlns="http://www.w3.org/2000/svg">
<g clip-path="url(#clip0_79_1349)">
<path d="M17.9161 -0.0594482C17.1709 -0.0594482 16.4791 0.326879 16.0888 0.961967L11.8833 7.20567C11.7463 7.41144 11.8019 7.68886 12.0077 7.82586C12.1745 7.93705 12.3952 7.9233 12.5471 7.79261L16.6866 4.20218C16.7554 4.14028 16.8614 4.14658 16.9233 4.21536C16.9514 4.24689 16.9663 4.28759 16.9663 4.32943V15.5707C16.9663 15.6636 16.8912 15.7381 16.7984 15.7381C16.7485 15.7381 16.7015 15.7163 16.67 15.6779L4.15678 0.699449C3.74924 0.218547 3.15084 -0.0588751 2.52091 -0.0594482H2.08357C0.899941 -0.0594482 -0.0595703 0.900063 -0.0595703 2.08369V17.9162C-0.0595703 19.0998 0.899941 20.0593 2.08357 20.0593C2.82871 20.0593 3.52054 19.673 3.91088 19.0379L8.11634 12.7942C8.25333 12.5884 8.19773 12.311 7.99196 12.174C7.82516 12.0628 7.60448 12.0766 7.45259 12.2073L3.31305 15.7977C3.24427 15.8596 3.13823 15.8533 3.07632 15.7845C3.04824 15.753 3.03333 15.7123 3.03391 15.6705V4.4263C3.03391 4.33344 3.10899 4.25893 3.20185 4.25893C3.25114 4.25893 3.29872 4.28071 3.33024 4.31911L15.8417 19.3004C16.2493 19.7813 16.8477 20.0588 17.4776 20.0593H17.9149C19.0986 20.0599 20.0586 19.101 20.0598 17.9173V2.08369C20.0598 0.900063 19.1003 -0.0594482 17.9166 -0.0594482H17.9161Z" fill="#00EC97"/>
</g>
<defs>
<clipPath id="clip0_79_1349">
<rect width="20" height="20" fill="white"/>
</clipPath>
</defs>
</svg>
